<?xml version="1.0" encoding="UTF-8"?>
<svg id="Logos" xmlns="http://www.w3.org/2000/svg" viewBox="0 0 703.89 369.83">
  <defs>
    <style>
      .cls-1 {
        fill: #040707;
      }
    </style>
  </defs>
  <g>
    <g>
      <polygon class="cls-1" points="70.98 181.11 82.88 181.11 82.88 215.51 115.16 181.11 130.29 181.11 101.95 211.98 130.7 251.62 116.57 251.62 93.17 220.76 82.88 231.85 82.88 251.62 70.98 251.62 70.98 181.11"/>
      <rect class="cls-1" x="148.53" y="181.11" width="11.91" height="70.51"/>
      <polygon class="cls-1" points="233.43 181.11 245.15 181.11 245.29 181.11 245.33 181.11 245.33 251.4 233.57 251.4 233.42 251.4 232.89 251.4 192.47 200.33 192.47 251.4 180.57 251.4 180.57 181.11 192.47 181.11 233.41 232.86 233.39 181.21 233.43 181.21 233.43 181.11"/>
      <path class="cls-1" d="m317.22,217h11.8v23.9c-6.6,7.26-16.03,10.9-28.29,10.9-10.33,0-18.98-3.4-25.95-10.2-6.96-6.8-10.44-15.4-10.44-25.8s3.54-19.06,10.64-25.99c7.1-6.93,15.68-10.39,25.74-10.39s18.43,2.93,25.09,8.79l-6.3,9c-2.73-2.33-5.48-3.95-8.25-4.85-2.77-.9-5.98-1.35-9.65-1.35-7.06,0-13,2.28-17.79,6.85-4.8,4.57-7.2,10.57-7.2,18s2.33,13.39,7,17.89c4.67,4.5,10.31,6.75,16.95,6.75s12.18-1.43,16.64-4.3v-19.2Z"/>
    </g>
    <path class="cls-1" d="m390.02,234.76l-15.93-20.23c-7.49,1.07-13.18,6.45-13.18,12.93,0,13.78,18.34,16.18,29.11,7.31m243.71-43.08h-37.1v18.5h33.49v10.5h-33.49v18.69h37.1v11.1h-48.9v-69.88h48.9v11.1Zm-87.15,5.4c-4.76-4.93-10.61-7.4-17.54-7.4s-12.78,2.46-17.54,7.4c-4.77,4.93-7.15,10.91-7.15,17.95s2.38,13.02,7.15,17.95c4.76,4.93,10.61,7.4,17.54,7.4s12.78-2.47,17.54-7.4c4.77-4.93,7.15-10.91,7.15-17.95s-2.38-13.01-7.15-17.95m8.65,43.74c-7.07,6.9-15.8,10.35-26.2,10.35s-19.13-3.45-26.2-10.35c-7.07-6.9-10.59-15.5-10.59-25.79s3.53-18.9,10.59-25.8c7.07-6.9,15.79-10.34,26.2-10.34s19.13,3.45,26.2,10.34c7.06,6.9,10.6,15.5,10.6,25.8s-3.53,18.89-10.6,25.79m-116.93-49.64v-10.6h34v46.09c0,8.13-2.07,14.23-6.2,18.3-4.13,4.06-9.43,6.1-15.9,6.1-8.13,0-15.07-2.87-20.8-8.6l6.7-9.3c4.61,3.34,9.34,6.45,13.9,6.49,6.99.06,10.49-6.04,10.49-12.38v-36.09h-22.2Zm-91.02-10.63h46.87l6.14,10.45h-29.73s28.92,36.67,28.92,36.67l7.61-5.85,7.12,9.05-7.59,5.85,11.32,14.36h-15.07l-5.73-7.29c-21.76,16.92-49.35,4.86-48.87-16.34.23-10.11,7.74-18.74,18.61-22.07-6.54-8.29-13.12-16.63-19.6-24.84"/>
  </g>
  <g>
    <polygon class="cls-1" points="184.43 284.71 184.43 283.28 173.74 283.28 173.74 298.86 175.39 298.86 175.39 292.25 183.45 292.25 183.45 290.83 175.39 290.83 175.39 284.71 184.43 284.71"/>
    <path class="cls-1" d="m209.02,298.86l-3.8-5.34c2.27-.73,3.56-2.45,3.56-4.9,0-3.34-2.41-5.34-6.37-5.34h-5.83v15.58h1.65v-4.94h4.18c.45,0,.85-.02,1.25-.07l3.56,5.01h1.8Zm-6.65-6.35h-4.14v-7.81h4.14c3.12,0,4.76,1.42,4.76,3.92s-1.65,3.89-4.76,3.89"/>
    <path class="cls-1" d="m228.23,299c4.68,0,8.17-3.36,8.17-7.92s-3.49-7.92-8.17-7.92-8.19,3.39-8.19,7.92,3.48,7.92,8.19,7.92m0-1.47c-3.76,0-6.57-2.74-6.57-6.46s2.81-6.46,6.57-6.46,6.52,2.74,6.52,6.46-2.79,6.46-6.52,6.46"/>
    <polygon class="cls-1" points="263.66 283.28 256.96 294.84 250.19 283.28 248.84 283.28 248.84 298.86 250.42 298.86 250.42 286.47 256.54 296.88 257.32 296.88 263.44 286.4 263.44 298.86 265.02 298.86 265.02 283.28 263.66 283.28"/>
    <polygon class="cls-1" points="295.07 297.44 295.07 291.65 303.12 291.65 303.12 290.25 295.07 290.25 295.07 284.71 304.1 284.71 304.1 283.29 293.42 283.29 293.42 298.86 304.43 298.86 304.43 297.44 295.07 297.44"/>
    <polygon class="cls-1" points="328.12 283.28 322.11 296.82 316.15 283.28 314.36 283.28 321.26 298.86 322.89 298.86 329.78 283.28 328.12 283.28"/>
    <polygon class="cls-1" points="342.43 297.44 342.43 291.65 350.49 291.65 350.49 290.25 342.43 290.25 342.43 284.71 351.47 284.71 351.47 283.29 340.79 283.29 340.79 298.86 351.8 298.86 351.8 297.44 342.43 297.44"/>
    <path class="cls-1" d="m376.86,298.86l-3.81-5.34c2.27-.73,3.56-2.45,3.56-4.9,0-3.34-2.4-5.34-6.36-5.34h-5.83v15.58h1.65v-4.94h4.19c.44,0,.85-.02,1.24-.07l3.56,5.01h1.81Zm-6.66-6.35h-4.14v-7.81h4.14c3.12,0,4.76,1.42,4.76,3.92s-1.65,3.89-4.76,3.89"/>
    <polygon class="cls-1" points="400.61 283.28 398.96 283.28 393.62 292.03 388.28 283.28 386.52 283.28 392.75 293.48 392.75 298.86 394.38 298.86 394.38 293.48 400.61 283.28"/>
    <polygon class="cls-1" points="431.3 283.28 426.74 296.75 422.15 283.28 420.62 283.28 415.97 296.68 411.47 283.28 409.78 283.28 415.03 298.86 416.75 298.86 421.33 285.58 425.89 298.86 427.63 298.86 432.88 283.28 431.3 283.28"/>
    <polygon class="cls-1" points="456.03 283.28 456.03 290.23 446.28 290.23 446.28 283.28 444.63 283.28 444.63 298.86 446.28 298.86 446.28 291.67 456.03 291.67 456.03 298.86 457.65 298.86 457.65 283.28 456.03 283.28"/>
    <polygon class="cls-1" points="473.12 297.44 473.12 291.65 481.18 291.65 481.18 290.25 473.12 290.25 473.12 284.71 482.16 284.71 482.16 283.29 471.48 283.29 471.48 298.86 482.49 298.86 482.49 297.44 473.12 297.44"/>
    <path class="cls-1" d="m507.55,298.86l-3.8-5.34c2.27-.73,3.56-2.45,3.56-4.9,0-3.34-2.4-5.34-6.37-5.34h-5.83v15.58h1.64v-4.94h4.19c.44,0,.85-.02,1.25-.07l3.56,5.01h1.8Zm-6.65-6.35h-4.14v-7.81h4.14c3.12,0,4.76,1.42,4.76,3.92s-1.65,3.89-4.76,3.89"/>
    <polygon class="cls-1" points="521.6 297.44 521.6 291.65 529.66 291.65 529.66 290.25 521.6 290.25 521.6 284.71 530.63 284.71 530.63 283.29 519.95 283.29 519.95 298.86 530.97 298.86 530.97 297.44 521.6 297.44"/>
  </g>
  <path class="cls-1" d="m313.53,113.15c-2.74-1.57-7.56-1.53-12.02-.74l-65.18,11.3v-14.62l67.59-11.5c1.09-.24,2.27-.38,3.51-.38,2.37,0,4.51.49,6.1,1.31v-10.06c-2.74-1.57-7.56-1.53-12.02-.74l-65.18,11.3v-14.62l67.59-11.5c1.09-.24,2.27-.38,3.51-.38,2.61,0,4.94.6,6.57,1.57v10.23l67.13-11.42c1.09-.24,2.27-.38,3.51-.38,2.61,0,4.94.6,6.57,1.57v10.23l67.13-11.42c1.09-.24,2.27-.38,3.51-.38,2.61,0,4.94.6,6.57,1.57v10.31l-.02,4.35c-2.64-1.86-7.75-1.86-12.47-1.02l-64.71,11.22v10.07l67.13-11.42c1.09-.24,2.27-.38,3.51-.38,2.61,0,4.94.6,6.57,1.57v10.31l-.02,4.35c-2.64-1.86-7.75-1.86-12.47-1.02l-64.71,11.22v10.07l67.13-11.42c1.09-.24,2.27-.38,3.51-.38,2.61,0,4.94.6,6.57,1.57v10.31l-.02,4.35c-2.64-1.86-7.75-1.86-12.47-1.03l-65.18,11.3v-10.56c-2.74-1.57-7.56-1.53-12.02-.74l-65.18,11.3v-10.56c-2.74-1.57-7.56-1.53-12.02-.74l-65.18,11.3v-14.62l67.59-11.5c1.09-.24,2.27-.38,3.51-.38,2.37,0,4.51.5,6.1,1.31v-10.06Zm.47-14.21v10.07l67.13-11.42c1.09-.24,2.27-.38,3.51-.38,2.37,0,4.51.49,6.1,1.31v-10.06c-2.74-1.57-7.56-1.53-12.02-.74l-64.71,11.22Zm76.73,14.21c-2.74-1.57-7.56-1.53-12.02-.74l-64.71,11.22v10.07l67.13-11.42c1.09-.24,2.27-.38,3.51-.38,2.37,0,4.51.5,6.1,1.31v-10.06Z"/>
</svg>